<svg xmlns="http://www.w3.org/2000/svg" viewBox="0 0 153.19 143.23" ><defs data-uid="o_f8eh43a3d_12"></defs><path d="m63.34 85.53h0l-3.66 3.66-3.66-3.66L17.23 46.73l12.08-12.08h7.32l-12.08 12.08 35.14 35.14 6.04-6.04-29.1-29.1 12.08-12.08h7.32l-12.08 12.08 25.44 25.44 6.04-6.04-19.4-19.4 12.08-12.08h7.32l-12.08 12.08 15.74 15.74 15.74-15.74-12.08-12.08h7.32l12.08 12.08-19.4 19.4h0s-3.66 3.66-3.66 3.66h0s-6.04 6.04-6.04 6.04h0s-3.66 3.66-3.66 3.66h0s-6.04 6.04-6.04 6.04Zm46.12-50.88h-7.32l12.08 12.08-47.92 47.92 3.66 3.66 51.58-51.58-12.08-12.08Zm19.4 0h-7.32l12.08 12.08-58.2 58.2 3.66 3.66 61.85-61.86-12.08-12.08Z" fill="#1D5D9B" stroke="#1D5D9B"></path></svg>