<?xml version="1.0" standalone="no"?>
<svg xmlns:xlink="http://www.w3.org/1999/xlink" id="wave" style="transform:rotate(0deg); transition: 0.3s" viewBox="0 0 1440 230" version="1.1" xmlns="http://www.w3.org/2000/svg"><defs><linearGradient id="sw-gradient-0" x1="0" x2="0" y1="1" y2="0"><stop stop-color="rgba(62, 50, 54 ,1)" offset="0%"/><stop stop-color="rgba(62, 50, 54 ,1)" offset="100%"/></linearGradient></defs><path style="transform:translate(0, 0px); opacity:1" fill="url(#sw-gradient-0)" d="M0,138L40,145.7C80,153,160,169,240,164.8C320,161,400,138,480,138C560,138,640,161,720,149.5C800,138,880,92,960,84.3C1040,77,1120,107,1200,134.2C1280,161,1360,184,1440,187.8C1520,192,1600,176,1680,149.5C1760,123,1840,84,1920,69C2000,54,2080,61,2160,69C2240,77,2320,84,2400,76.7C2480,69,2560,46,2640,65.2C2720,84,2800,146,2880,172.5C2960,199,3040,192,3120,187.8C3200,184,3280,184,3360,164.8C3440,146,3520,107,3600,111.2C3680,115,3760,161,3840,168.7C3920,176,4000,146,4080,130.3C4160,115,4240,115,4320,126.5C4400,138,4480,161,4560,145.7C4640,130,4720,77,4800,57.5C4880,38,4960,54,5040,76.7C5120,100,5200,130,5280,122.7C5360,115,5440,69,5520,42.2C5600,15,5680,8,5720,3.8L5760,0L5760,230L5720,230C5680,230,5600,230,5520,230C5440,230,5360,230,5280,230C5200,230,5120,230,5040,230C4960,230,4880,230,4800,230C4720,230,4640,230,4560,230C4480,230,4400,230,4320,230C4240,230,4160,230,4080,230C4000,230,3920,230,3840,230C3760,230,3680,230,3600,230C3520,230,3440,230,3360,230C3280,230,3200,230,3120,230C3040,230,2960,230,2880,230C2800,230,2720,230,2640,230C2560,230,2480,230,2400,230C2320,230,2240,230,2160,230C2080,230,2000,230,1920,230C1840,230,1760,230,1680,230C1600,230,1520,230,1440,230C1360,230,1280,230,1200,230C1120,230,1040,230,960,230C880,230,800,230,720,230C640,230,560,230,480,230C400,230,320,230,240,230C160,230,80,230,40,230L0,230Z"/><defs><linearGradient id="sw-gradient-1" x1="0" x2="0" y1="1" y2="0"><stop stop-color="rgba(62, 50, 54 ,0.53)" offset="0%"/><stop stop-color="rgba(62, 50, 54 ,0.51)" offset="100%"/></linearGradient></defs><path style="transform:translate(0, 50px); opacity:0.9" fill="url(#sw-gradient-1)" d="M0,69L40,76.7C80,84,160,100,240,95.8C320,92,400,69,480,69C560,69,640,92,720,103.5C800,115,880,115,960,107.3C1040,100,1120,84,1200,84.3C1280,84,1360,100,1440,95.8C1520,92,1600,69,1680,80.5C1760,92,1840,138,1920,149.5C2000,161,2080,138,2160,130.3C2240,123,2320,130,2400,145.7C2480,161,2560,184,2640,187.8C2720,192,2800,176,2880,145.7C2960,115,3040,69,3120,72.8C3200,77,3280,130,3360,153.3C3440,176,3520,169,3600,141.8C3680,115,3760,69,3840,69C3920,69,4000,115,4080,115C4160,115,4240,69,4320,42.2C4400,15,4480,8,4560,3.8C4640,0,4720,0,4800,19.2C4880,38,4960,77,5040,111.2C5120,146,5200,176,5280,191.7C5360,207,5440,207,5520,191.7C5600,176,5680,146,5720,130.3L5760,115L5760,230L5720,230C5680,230,5600,230,5520,230C5440,230,5360,230,5280,230C5200,230,5120,230,5040,230C4960,230,4880,230,4800,230C4720,230,4640,230,4560,230C4480,230,4400,230,4320,230C4240,230,4160,230,4080,230C4000,230,3920,230,3840,230C3760,230,3680,230,3600,230C3520,230,3440,230,3360,230C3280,230,3200,230,3120,230C3040,230,2960,230,2880,230C2800,230,2720,230,2640,230C2560,230,2480,230,2400,230C2320,230,2240,230,2160,230C2080,230,2000,230,1920,230C1840,230,1760,230,1680,230C1600,230,1520,230,1440,230C1360,230,1280,230,1200,230C1120,230,1040,230,960,230C880,230,800,230,720,230C640,230,560,230,480,230C400,230,320,230,240,230C160,230,80,230,40,230L0,230Z"/></svg>