<?xml version="1.0" encoding="iso-8859-1"?>
<!-- Uploaded to: SVG Repo, www.svgrepo.com, Generator: SVG Repo Mixer Tools -->
<svg height="800px" width="800px" version="1.1" id="Capa_1" xmlns="http://www.w3.org/2000/svg" xmlns:xlink="http://www.w3.org/1999/xlink" 
	 viewBox="0 0 435.969 435.969" xml:space="preserve">
<g>
	<path style="fill:#010002;" d="M286.443,79.294l5.161-5.024l9.654-8.342c4.445-3.843,6.951-9.446,6.844-14.869l0.012-0.996
		c0.072-4.732-1.522-9.326-4.475-12.93l-3.95-4.779L283.393,8.64C279.676,3.228,273.542,0,266.985,0h-97.976
		c-6.564,0-12.697,3.234-16.409,8.64l-15.997,23.307l-4.254,5.185c-2.96,3.604-4.547,8.204-4.463,12.471l-0.018,0.949
		c-0.084,5.931,2.417,11.54,6.862,15.377l9.392,8.097l5.412,5.275C79.494,107.195,33.012,174.955,33.012,250.996
		c0,101.998,82.975,184.973,184.973,184.973s184.973-82.975,184.973-184.973C402.964,174.955,356.482,107.189,286.443,79.294z
		 M217.991,424.036c-95.41,0-173.039-77.629-173.039-173.039c0-72.915,45.623-137.805,113.902-162.621l41.637,40.557
		c1.026,0.996,3.759,3.658,17.501,3.658c13.736,0,16.469-2.661,17.495-3.664l41.643-40.551
		c68.273,24.81,113.902,89.706,113.902,162.621C391.03,346.407,313.407,424.036,217.991,424.036z"/>
</g>
</svg>