<?xml version="1.0" standalone="no"?>
<svg xmlns:xlink="http://www.w3.org/1999/xlink" id="wave" style="transform:rotate(180deg); transition: 0.3s" viewBox="0 0 1440 180" version="1.1" xmlns="http://www.w3.org/2000/svg"><defs><linearGradient id="sw-gradient-0" x1="0" x2="0" y1="1" y2="0"><stop stop-color="rgba(102, 104, 82 ,1)" offset="0%"/><stop stop-color="rgba(102, 104, 82 ,1)" offset="100%"/></linearGradient></defs><path style="transform:translate(0, 0px); opacity:1" fill="url(#sw-gradient-0)" d="M0,0L34.3,24C68.6,48,137,96,206,99C274.3,102,343,60,411,39C480,18,549,18,617,42C685.7,66,754,114,823,123C891.4,132,960,102,1029,90C1097.1,78,1166,84,1234,96C1302.9,108,1371,126,1440,129C1508.6,132,1577,120,1646,117C1714.3,114,1783,120,1851,102C1920,84,1989,42,2057,24C2125.7,6,2194,12,2263,24C2331.4,36,2400,54,2469,57C2537.1,60,2606,48,2674,57C2742.9,66,2811,96,2880,111C2948.6,126,3017,126,3086,129C3154.3,132,3223,138,3291,117C3360,96,3429,48,3497,51C3565.7,54,3634,108,3703,135C3771.4,162,3840,162,3909,153C3977.1,144,4046,126,4114,102C4182.9,78,4251,48,4320,42C4388.6,36,4457,54,4526,60C4594.3,66,4663,60,4731,60C4800,60,4869,66,4903,69L4937.1,72L4937.1,180L4902.9,180C4868.6,180,4800,180,4731,180C4662.9,180,4594,180,4526,180C4457.1,180,4389,180,4320,180C4251.4,180,4183,180,4114,180C4045.7,180,3977,180,3909,180C3840,180,3771,180,3703,180C3634.3,180,3566,180,3497,180C3428.6,180,3360,180,3291,180C3222.9,180,3154,180,3086,180C3017.1,180,2949,180,2880,180C2811.4,180,2743,180,2674,180C2605.7,180,2537,180,2469,180C2400,180,2331,180,2263,180C2194.3,180,2126,180,2057,180C1988.6,180,1920,180,1851,180C1782.9,180,1714,180,1646,180C1577.1,180,1509,180,1440,180C1371.4,180,1303,180,1234,180C1165.7,180,1097,180,1029,180C960,180,891,180,823,180C754.3,180,686,180,617,180C548.6,180,480,180,411,180C342.9,180,274,180,206,180C137.1,180,69,180,34,180L0,180Z"/><defs><linearGradient id="sw-gradient-1" x1="0" x2="0" y1="1" y2="0"><stop stop-color="rgba(102, 104, 82 ,0.53)" offset="0%"/><stop stop-color="rgba(102, 104, 82 ,0.51)" offset="100%"/></linearGradient></defs><path style="transform:translate(0, 50px); opacity:0.9" fill="url(#sw-gradient-1)" d="M0,72L34.3,60C68.6,48,137,24,206,24C274.3,24,343,48,411,60C480,72,549,72,617,63C685.7,54,754,36,823,39C891.4,42,960,66,1029,72C1097.1,78,1166,66,1234,54C1302.9,42,1371,30,1440,33C1508.6,36,1577,54,1646,78C1714.3,102,1783,132,1851,147C1920,162,1989,162,2057,144C2125.7,126,2194,90,2263,72C2331.4,54,2400,54,2469,54C2537.1,54,2606,54,2674,57C2742.9,60,2811,66,2880,63C2948.6,60,3017,48,3086,45C3154.3,42,3223,48,3291,57C3360,66,3429,78,3497,93C3565.7,108,3634,126,3703,120C3771.4,114,3840,84,3909,69C3977.1,54,4046,54,4114,45C4182.9,36,4251,18,4320,33C4388.6,48,4457,96,4526,117C4594.3,138,4663,132,4731,135C4800,138,4869,150,4903,156L4937.1,162L4937.1,180L4902.9,180C4868.6,180,4800,180,4731,180C4662.9,180,4594,180,4526,180C4457.1,180,4389,180,4320,180C4251.4,180,4183,180,4114,180C4045.7,180,3977,180,3909,180C3840,180,3771,180,3703,180C3634.3,180,3566,180,3497,180C3428.6,180,3360,180,3291,180C3222.9,180,3154,180,3086,180C3017.1,180,2949,180,2880,180C2811.4,180,2743,180,2674,180C2605.7,180,2537,180,2469,180C2400,180,2331,180,2263,180C2194.3,180,2126,180,2057,180C1988.6,180,1920,180,1851,180C1782.9,180,1714,180,1646,180C1577.1,180,1509,180,1440,180C1371.4,180,1303,180,1234,180C1165.7,180,1097,180,1029,180C960,180,891,180,823,180C754.3,180,686,180,617,180C548.6,180,480,180,411,180C342.9,180,274,180,206,180C137.1,180,69,180,34,180L0,180Z"/></svg>